<svg xmlns="http://www.w3.org/2000/svg" viewBox="0 0 147.81 147.82"><defs><style>.cls-1{fill:#4f7736;}.cls-2{fill:#fff;}</style></defs><g id="Layer_2" data-name="Layer 2"><g id="Layer_1-2" data-name="Layer 1"><path class="cls-1" d="M74,43.82v1.31c-13.18.74-22.23,7.21-27.23,19.48l-1.27-.44A30.06,30.06,0,0,1,74,43.82Z"/><path class="cls-1" d="M146.67,60.84a72.6,72.6,0,0,0-11.84-28.79A73.32,73.32,0,0,0,101,5.14,72.42,72.42,0,0,0,72.48,0,74.31,74.31,0,0,0,62.26.9,72.22,72.22,0,0,0,39.57,8.43,73.27,73.27,0,0,0,7.25,41.93,72.29,72.29,0,0,0,0,75.38,71.55,71.55,0,0,0,1.59,89.31a73.33,73.33,0,0,0,25.65,41.92c1.68,1.39,3.46,2.65,5.19,4l.19-.12V74.31c0-1,0-2,.07-3A39.91,39.91,0,0,1,34.29,61,39.45,39.45,0,0,1,45.67,43.42C55.5,34.31,67.23,31,80.39,32.8A38.14,38.14,0,0,1,104,45.38a41.44,41.44,0,0,1,10.74,34.8,38,38,0,0,1-11,22.37c-9.81,9.7-21.47,13.74-34.77,12.27V87.72a19.6,19.6,0,0,0,7.49.33,14.62,14.62,0,0,0,3.36-1v14.41a37.69,37.69,0,0,1-5.82.77v1.31a31.73,31.73,0,0,0,5.82-.57v0l.09,0a29.34,29.34,0,0,0,11.6-5,29.76,29.76,0,0,0,11-14.76l-1.27-.44Q95.35,97,82.12,100.85V85.74A14.06,14.06,0,0,0,88.1,71,14.36,14.36,0,0,0,70.8,59.44c-5,1.06-8.65,4-10.17,9.1a24.22,24.22,0,0,0-.93,6.87q0,21.47,0,42.93,0,13.62,0,27.25c0,.66.13.95.85,1,3.38.35,6.74.92,10.12,1.11a68.93,68.93,0,0,0,20.63-2,73.07,73.07,0,0,0,45.18-32.48,71.78,71.78,0,0,0,11.25-35.22A74.08,74.08,0,0,0,146.67,60.84Z"/><path class="cls-2" d="M79.77,111.84,68.92,114V79.19L63,79.33V74a35.41,35.41,0,0,0,5.5-2.57,16.13,16.13,0,0,0,5-4.86h6.29Z"/></g></g></svg>