<svg xmlns="http://www.w3.org/2000/svg" xmlns:xlink="http://www.w3.org/1999/xlink" viewBox="0 0 53.3 53.3"><defs><style>.cls-1{fill:#e3e4e8;}.cls-2{fill:#fa9884;}.cls-3{fill:#ffc2ab;}.cls-4{fill:url(#linear-gradient);}.cls-5{fill:#fff;}.cls-6{fill:#242736;}</style><linearGradient id="linear-gradient" x1="8.42" y1="46.06" x2="44.87" y2="46.06" gradientUnits="userSpaceOnUse"><stop offset="0" stop-color="#ff87a7"/><stop offset="1" stop-color="#ff4778"/></linearGradient></defs><g id="Layer_2" data-name="Layer 2"><g id="Layer_1-2" data-name="Layer 1"><path class="cls-1" d="M53.3,26.65A26.65,26.65,0,1,1,26.65,0,26.65,26.65,0,0,1,53.3,26.65Z"/><path class="cls-2" d="M17,23s-1.28-.49-1.5-.16a3.83,3.83,0,0,0-.19,2.4,4.79,4.79,0,0,0,1.32,2.28,3.76,3.76,0,0,0,1.62.24A35.33,35.33,0,0,0,17,23Z"/><path class="cls-2" d="M36.54,23s1.29-.49,1.51-.16a3.9,3.9,0,0,1,.19,2.4,4.79,4.79,0,0,1-1.32,2.28,3.77,3.77,0,0,1-1.62.24A38.23,38.23,0,0,1,36.54,23Z"/><path class="cls-3" d="M32.79,38.82a4,4,0,0,1-1.71-3.35,38.73,38.73,0,0,1,.56-5.53h-10a38.73,38.73,0,0,1,.56,5.53,4,4,0,0,1-1.71,3.35l6.14,9.66Z"/><path class="cls-2" d="M31.1,34.22c.13-1.77.54-4.28.54-4.28h-10s.38,2.33.52,4.08c1.74,1.53,3.61,2.54,4.57,2.54S29.43,35.64,31.1,34.22Z"/><path class="cls-4" d="M26.65,53.3a26.5,26.5,0,0,0,18.22-7.25s0,0,0,0c-.71-.42-7.17-4.26-10.37-6.09a12.21,12.21,0,0,1-1.7-1.12l-6.14,9.66-6.14-9.66a12.84,12.84,0,0,1-1.7,1.12C15.61,41.77,9.15,45.61,8.44,46l0,0A26.54,26.54,0,0,0,26.65,53.3Z"/><path class="cls-5" d="M31.32,36.89l-4,7.55-.67,4,2.26-3.55L33,46.21s.8-6.49.84-6.64a.77.77,0,0,0,0-.56c-.08-.16-2.13-2.12-2.13-2.12Z"/><path class="cls-5" d="M22,36.89l4,7.55.67,4L24.4,44.93l-4.12,1.28s-.8-6.49-.84-6.64a.77.77,0,0,1,0-.56c.08-.16,2.13-2.12,2.13-2.12Z"/><path class="cls-3" d="M26.75,6.9c8.63,0,10.24,7.88,10.21,11a44.49,44.49,0,0,1-1.9,10.72c-1.13,4.18-6.42,6.2-8.31,6.2s-7.17-2-8.3-6.2a44,44,0,0,1-1.9-10.72C16.52,14.78,18.13,6.9,26.75,6.9Z"/><path class="cls-6" d="M39.8,16.08A3.26,3.26,0,0,1,39,14.43a7.93,7.93,0,0,0-1.51-3.07,2.12,2.12,0,0,0,.76-1.8.52.52,0,0,0-.51-.44h0a6.51,6.51,0,0,1-3.35-1.53,11.89,11.89,0,0,0-7.6-3c-3.51-.18-5.9.9-7.31,3.29A3.25,3.25,0,0,0,16.1,9.47a21.47,21.47,0,0,0-1.71,4.82A4.52,4.52,0,0,1,13,16.46a.5.5,0,0,0-.12.58,1.76,1.76,0,0,0,1.42.95,21.4,21.4,0,0,0,.54,3.16A4.07,4.07,0,0,0,17,23.6a.33.33,0,0,0,.32,0,.38.38,0,0,0,.17-.27,12.22,12.22,0,0,1,.42-2,5.41,5.41,0,0,0,.76-1.34c0,.06,0,.07,0,.08a.39.39,0,0,0,.33.21c.38,0,.78-.74,1.05-1.36a6.92,6.92,0,0,0,.41-1.77,8.26,8.26,0,0,1,.25-1.26c.13-.45.32-.72.51-.72s.25,0,.54.32a.35.35,0,0,0,.29.1.34.34,0,0,0,.26-.16,1.71,1.71,0,0,1,1.35-.94c.74,0,1.67.7,2.93,2.19a6.82,6.82,0,0,0,3.84,2.28.42.42,0,0,0,.43-.26c.07-.22,0-.45-.23-.91a12.92,12.92,0,0,0,3.71,1.52.4.4,0,0,0,.32-.17.88.88,0,0,0,.09-.49l.06,0A38.34,38.34,0,0,0,36,23.38a.36.36,0,0,0,.34.25h.08a2.78,2.78,0,0,0,1.15-.56l.07-.08a10.38,10.38,0,0,0,1.11-5.53A1.62,1.62,0,0,0,40,16.63.48.48,0,0,0,39.8,16.08Z"/></g></g></svg>