<svg xmlns="http://www.w3.org/2000/svg" viewBox="0 0 23.04 27.94"><defs><style>.cls-1{fill:#fff;stroke:#fff;stroke-miterlimit:10;stroke-width:0.75px;}</style></defs><g id="Layer_2" data-name="Layer 2"><g id="Layer_1-2" data-name="Layer 1"><path class="cls-1" d="M8.78,13.72a6.67,6.67,0,1,1,6.67-6.67A6.67,6.67,0,0,1,8.78,13.72Zm0-12.59A5.92,5.92,0,1,0,14.7,7.05,5.93,5.93,0,0,0,8.78,1.13Z"/><path class="cls-1" d="M17.13,27.57H.75a.37.37,0,0,1-.37-.38V21.53a8.57,8.57,0,0,1,17.13,0v5.66A.38.38,0,0,1,17.13,27.57Zm-16-.75H16.76V21.53a7.82,7.82,0,0,0-15.63,0Z"/><path class="cls-1" d="M15.56,15.14a6,6,0,0,1-4.26-1.77.37.37,0,0,1,.53-.53,5.28,5.28,0,1,0,3.73-9,4.9,4.9,0,0,0-.77.06.38.38,0,0,1-.11-.75,6.29,6.29,0,0,1,.88-.06,6,6,0,0,1,0,12.06Z"/><path class="cls-1" d="M22.29,27.57H17.13a.37.37,0,0,1-.37-.38.36.36,0,0,1,.37-.37h4.78V22.11a6.92,6.92,0,0,0-6.85-7,7.43,7.43,0,0,0-1.15.09.37.37,0,0,1-.43-.3.38.38,0,0,1,.3-.44,7.81,7.81,0,0,1,1.28-.11,7.68,7.68,0,0,1,7.6,7.73v5.08A.38.38,0,0,1,22.29,27.57Z"/></g></g></svg>