<svg xmlns="http://www.w3.org/2000/svg" viewBox="0 0 278.85 92.72"><defs><style>.cls-1{fill:#4f7736;}.cls-2{fill:#fff;}.cls-3{fill:#f7941d;}.cls-4,.cls-5{fill:none;stroke-miterlimit:10;}.cls-4{stroke:#fff;stroke-width:0.25px;}.cls-5{stroke:#f7941d;stroke-width:0.35px;}</style></defs><g id="Layer_2" data-name="Layer 2"><g id="Layer_1-2" data-name="Layer 1"><path class="cls-1" d="M135.28,0H153.1V46.71a28.24,28.24,0,0,1-1.44,9.1,25.84,25.84,0,0,1-4.47,7.66A27,27,0,0,1,137.72,71a27.76,27.76,0,0,1-12,2.66A26.75,26.75,0,0,1,102.29,60a27.71,27.71,0,0,1,0-27.56,26.61,26.61,0,0,1,10.11-9.84A27.86,27.86,0,0,1,126.34,19a26.21,26.21,0,0,1,5.69.69V37.94a17.66,17.66,0,0,0-5.85-1.22,9.72,9.72,0,0,0-7,2.71,9.09,9.09,0,0,0-2.87,6.81,9.7,9.7,0,0,0,1.28,4.89,9.17,9.17,0,0,0,3.51,3.56A8.91,8.91,0,0,0,125.92,56a9.52,9.52,0,0,0,4.79-1.28,8.19,8.19,0,0,0,3.3-3.35c.85-1.6,1.28-4,1.28-7.34V0Z"/><path class="cls-1" d="M17.82,92.72H0V46a28.24,28.24,0,0,1,1.44-9.1,25.84,25.84,0,0,1,4.47-7.66,27,27,0,0,1,9.47-7.55,27.76,27.76,0,0,1,12-2.66A26.75,26.75,0,0,1,50.81,32.76a27.71,27.71,0,0,1,0,27.56A26.61,26.61,0,0,1,40.7,70.16a27.86,27.86,0,0,1-13.94,3.56A26.21,26.21,0,0,1,21.07,73V54.78A17.66,17.66,0,0,0,26.92,56a9.72,9.72,0,0,0,7-2.71,9.09,9.09,0,0,0,2.87-6.81,9.7,9.7,0,0,0-1.28-4.89A9.17,9.17,0,0,0,32,38a8.91,8.91,0,0,0-4.84-1.33A9.52,9.52,0,0,0,22.39,38a8.19,8.19,0,0,0-3.3,3.35c-.85,1.6-1.28,4-1.28,7.34V92.72Z"/><path class="cls-1" d="M198.27,48.32V68.4H183.89V48.24q0-4.08-1-5.92a6.81,6.81,0,0,0-2.7-2.75,7.66,7.66,0,0,0-3.82-1,7.45,7.45,0,0,0-5.49,2.28,7.8,7.8,0,0,0-2.27,5.62,7.18,7.18,0,0,0,2.32,5.45,7.77,7.77,0,0,0,5.67,2.23,14,14,0,0,0,4.72-1V67.89a21.24,21.24,0,0,1-4.59.56,22.58,22.58,0,0,1-11.25-2.92,21.19,21.19,0,0,1-8.16-7.94,21.44,21.44,0,0,1-3-11.07,22,22,0,0,1,3-11.16,21.8,21.8,0,0,1,7.94-8.07,21.13,21.13,0,0,1,11-3,22.11,22.11,0,0,1,11.12,2.88,21.84,21.84,0,0,1,8,7.94,21.54,21.54,0,0,1,2.92,11v2.22Z"/><path class="cls-1" d="M218,73.67H200.14V0H218Z"/><path class="cls-1" d="M90.87,52.77l2.25,14.49a29.41,29.41,0,0,1-14.68,2.41,26.63,26.63,0,0,1-12.27-4,23.72,23.72,0,0,1-4.72-4,22.62,22.62,0,0,1-3.37-4.91,21.29,21.29,0,0,1-2.2-11.69,21.69,21.69,0,0,1,4-10.88,22,22,0,0,1,8.82-7.34A23,23,0,0,1,90.81,28.6,20.92,20.92,0,0,1,95,32.3a23.26,23.26,0,0,1,3.24,4.88L78.5,55.09a8,8,0,0,0,1.84.43C83.48,55.78,87,54.87,90.87,52.77ZM71,50.22,82.07,40.15A7.67,7.67,0,0,0,78.76,39a7.55,7.55,0,0,0-4,.7,8,8,0,0,0-3.08,2.66,7.75,7.75,0,0,0-1.43,3.85A8.62,8.62,0,0,0,71,50.22Z"/><path class="cls-2" d="M9.34,40.33l-.83-.28A19.81,19.81,0,0,1,27.26,26.66v.87A18.94,18.94,0,0,0,9.34,40.33Z"/><path class="cls-2" d="M27.27,66.29v-.87A19,19,0,0,0,46.21,46.48h.87A19.84,19.84,0,0,1,27.27,66.29Z"/><path class="cls-2" d="M108.3,39.38l-.81-.33A19.92,19.92,0,0,1,124.54,26.7l.06.87A19,19,0,0,0,108.3,39.38Z"/><path class="cls-2" d="M125.86,66.29a19.87,19.87,0,0,1-17.24-10l.76-.43a18.94,18.94,0,0,0,35.39-8.22l.87,0A19.81,19.81,0,0,1,125.86,66.29Z"/><path class="cls-1" d="M78.4,74.6A27.56,27.56,0,0,1,55,61.76l.74-.47A26.7,26.7,0,0,0,78.4,73.72Z"/><path class="cls-1" d="M55.78,32.57,55,32.1A27.67,27.67,0,0,1,96.53,26l-.57.66a26.8,26.8,0,0,0-40.18,5.88Z"/><path class="cls-2" d="M99.38,39.65a22.31,22.31,0,0,1,.22,13.88l.45,1.46a23.71,23.71,0,0,0,1.42-8.06,22.78,22.78,0,0,0-1.71-8.72"/><path class="cls-1" d="M176.29,74.14a27.66,27.66,0,0,1-22.94-12.2l.72-.49a26.88,26.88,0,0,0,27.62,11.27l.18.85A27.45,27.45,0,0,1,176.29,74.14Z"/><path class="cls-1" d="M157.59,27.28l-.61-.62a27.68,27.68,0,0,1,38.51-.11l-.61.63a26.8,26.8,0,0,0-37.29.1Z"/><rect class="cls-2" x="212.21" y="8.11" width="0.85" height="59.84"/><path class="cls-3" d="M278.85,46.57a27.16,27.16,0,1,0-31.41,26.8V47.81l-9,1.34-1.23-7.46a30.31,30.31,0,0,0,9.31-3.79,22.26,22.26,0,0,0,6.73-6.55h6.1V72.62A27.16,27.16,0,0,0,278.85,46.57Z"/><path class="cls-4" d="M242.34,66.29a21.82,21.82,0,1,1,21.79-1.79"/><line class="cls-5" x1="256.3" y1="41.63" x2="256.3" y2="73.62"/></g></g></svg>