<svg xmlns="http://www.w3.org/2000/svg" viewBox="0 0 27.88 27.7"><defs><style>.cls-1{fill:#666;stroke:#666;stroke-miterlimit:10;stroke-width:0.75px;}</style></defs><g id="Layer_2" data-name="Layer 2"><g id="Layer_1-2" data-name="Layer 1"><path class="cls-1" d="M4,8.63A.36.36,0,0,0,3.64,9,.37.37,0,0,0,4,9.36H9a.32.32,0,0,0,.14,0l.1-.07h0a.36.36,0,0,0,.08-.12.32.32,0,0,0,0-.14h0V4.18A.37.37,0,0,0,9,3.82a.36.36,0,0,0-.36.36V8.11L1,.48a.37.37,0,0,0-.52,0A.37.37,0,0,0,.48,1L8.09,8.63Z"/><path class="cls-1" d="M14,9.36A4.66,4.66,0,1,0,18.68,14,4.66,4.66,0,0,0,14,9.36Zm0,8.58A3.93,3.93,0,1,1,18,14,3.93,3.93,0,0,1,14,17.94Z"/><path class="cls-1" d="M18.41,9.12a.23.23,0,0,0,.07.1v0h0a.26.26,0,0,0,.11.07l.14,0h4.81A.37.37,0,0,0,23.92,9a.38.38,0,0,0-.37-.37H19.62L27.25,1A.36.36,0,1,0,26.74.5L19.11,8.1V4a.38.38,0,0,0-.37-.37.37.37,0,0,0-.36.37V9h0A.31.31,0,0,0,18.41,9.12Z"/><path class="cls-1" d="M27.4,26.7l-7.61-7.63h4.09a.37.37,0,0,0,0-.73h-5l-.12,0-.1.07h0a.36.36,0,0,0-.08.12.31.31,0,0,0,0,.13h0v4.81a.37.37,0,0,0,.37.37.36.36,0,0,0,.36-.37V19.59l7.6,7.63a.39.39,0,0,0,.52,0A.37.37,0,0,0,27.4,26.7Z"/><path class="cls-1" d="M9.5,18.72h0a.28.28,0,0,0,0-.13.33.33,0,0,0-.06-.1h0l-.11-.08-.14,0H4.33a.36.36,0,1,0,0,.72H8.26L.63,26.69a.35.35,0,0,0,0,.51.36.36,0,0,0,.25.11.36.36,0,0,0,.26-.11l7.63-7.6v4.08a.37.37,0,0,0,.37.36.36.36,0,0,0,.36-.36v-5Z"/></g></g></svg>