<svg xmlns="http://www.w3.org/2000/svg" viewBox="0 0 28.67 28.33"><defs><style>.cls-1{fill:#666;stroke:#666;stroke-miterlimit:10;stroke-width:0.75px;}</style></defs><g id="Layer_2" data-name="Layer 2"><g id="Layer_1-2" data-name="Layer 1"><path class="cls-1" d="M8.67,13.06a1.59,1.59,0,1,1,1.59-1.59A1.6,1.6,0,0,1,8.67,13.06Zm0-2.68a1.09,1.09,0,1,0,1.09,1.09A1.09,1.09,0,0,0,8.67,10.38Z"/><path class="cls-1" d="M20,13.06a1.59,1.59,0,1,1,1.6-1.59A1.59,1.59,0,0,1,20,13.06Zm0-2.68a1.09,1.09,0,1,0,1.09,1.09A1.09,1.09,0,0,0,20,10.38Z"/><path class="cls-1" d="M14.33,13.06a1.59,1.59,0,1,1,1.6-1.59A1.59,1.59,0,0,1,14.33,13.06Zm0-2.68a1.09,1.09,0,1,0,1.1,1.09A1.09,1.09,0,0,0,14.33,10.38Z"/><path class="cls-1" d="M7.49,28a.41.41,0,0,1-.16,0,.38.38,0,0,1-.22-.35V21.68H.76a.38.38,0,0,1-.38-.38V.76A.38.38,0,0,1,.76.38H27.91a.38.38,0,0,1,.38.38V21.3a.38.38,0,0,1-.38.38H14.48L7.74,27.85A.35.35,0,0,1,7.49,28Zm-6.35-7H7.49a.38.38,0,0,1,.38.38v5.41L14.08,21a.35.35,0,0,1,.25-.1h13.2V1.14H1.14Z"/></g></g></svg>