<?xml version="1.0" encoding="UTF-8" standalone="no"?>
<!-- Created with Inkscape (http://www.inkscape.org/) -->

<svg
   width="149mm"
   height="295mm"
   viewBox="0 0 149 295"
   version="1.1"
   id="svg707"
   xmlns="http://www.w3.org/2000/svg"
   xmlns:svg="http://www.w3.org/2000/svg">
  <defs
     id="defs704">
    <linearGradient
       x1="0"
       y1="0"
       x2="1"
       y2="0"
       gradientUnits="userSpaceOnUse"
       gradientTransform="matrix(370.48605,0,0,-370.48605,132.34116,602.03461)"
       spreadMethod="pad"
       id="linearGradient28">
      <stop
         style="stop-opacity:1;stop-color:#206f28"
         offset="0"
         id="stop24" />
      <stop
         style="stop-opacity:1;stop-color:#407e3a"
         offset="1"
         id="stop26" />
    </linearGradient>
    <linearGradient
       x1="0"
       y1="0"
       x2="1"
       y2="0"
       gradientUnits="userSpaceOnUse"
       gradientTransform="matrix(0,-655.03601,-655.03601,0,317.5842,830.76782)"
       spreadMethod="pad"
       id="linearGradient48">
      <stop
         style="stop-opacity:1;stop-color:#2c3e50"
         offset="0"
         id="stop44" />
      <stop
         style="stop-opacity:1;stop-color:#34495e"
         offset="1"
         id="stop46" />
    </linearGradient>
    <linearGradient
       x1="0"
       y1="0"
       x2="1"
       y2="0"
       gradientUnits="userSpaceOnUse"
       gradientTransform="matrix(302.24356,0,0,-302.24356,132.34119,684.93677)"
       spreadMethod="pad"
       id="linearGradient68">
      <stop
         style="stop-opacity:1;stop-color:#009c97"
         offset="0"
         id="stop64" />
      <stop
         style="stop-opacity:1;stop-color:#79b322"
         offset="1"
         id="stop66" />
    </linearGradient>
    <linearGradient
       x1="0"
       y1="0"
       x2="1"
       y2="0"
       gradientUnits="userSpaceOnUse"
       gradientTransform="matrix(68.242477,0,0,-68.242477,434.58475,600.74927)"
       spreadMethod="pad"
       id="linearGradient88">
      <stop
         style="stop-opacity:1;stop-color:#009c97"
         offset="0"
         id="stop84" />
      <stop
         style="stop-opacity:1;stop-color:#79b322"
         offset="1"
         id="stop86" />
    </linearGradient>
    <clipPath
       clipPathUnits="userSpaceOnUse"
       id="clipPath98">
      <path
         d="M 0,955.295 H 1311.882 V 0 H 0 Z"
         id="path96" />
    </clipPath>
    <clipPath
       clipPathUnits="userSpaceOnUse"
       id="clipPath106">
      <path
         d="M 132.341,723.648 H 502.827 V 382.377 H 132.341 Z"
         id="path104" />
    </clipPath>
    <clipPath
       clipPathUnits="userSpaceOnUse"
       id="clipPath110">
      <path
         d="m 132.341,382.378 h 123.495 123.496 123.495 v 63.924 85.094 85.096 85.094 c -19.18,13.135 -44.595,24.757 -72.418,21.512 -26.682,-3.112 -43.253,-18.457 -59.658,-33.97 -17.583,-16.627 -34.977,-33.445 -64.429,-35.597 -29.854,-2.181 -47.592,12.497 -65.76,22.121 -11.246,5.957 -22.656,9.978 -37.207,6.865 C 182.238,678 156.377,658.856 132.341,597.555 v -59.087 -59.087 -59.087 z"
         id="path108" />
    </clipPath>
  </defs>
  <g
     id="layer1">
    <g
       id="g12"
       transform="matrix(0.40265377,0,0,-0.40265377,-24.322481,339.83699)">
      <g
         id="g14"
         transform="translate(-71.88537)">
        <g
           id="g20">
          <g
             id="g22">
            <path
               d="M 502.827,361.21 H 132.341 v 481.649 h 370.486 z"
               style="fill:url(#linearGradient28);stroke:none"
               id="path30" />
          </g>
        </g>
      </g>
    </g>
    <g
       id="g32"
       transform="matrix(0.40265377,0,0,-0.40265377,-53.267396,339.83699)">
      <g
         id="g34"
         style="display:inline">
        <g
           id="g40">
          <g
             id="g42">
            <path
               d="m 132.341,111.129 h 370.486 v 479.762 l -56.731,-11.381 -11.511,2.445 -23.986,14.518 c 0,0 -22.736,46.058 -42.099,54.325 v 0 c -19.361,8.267 -83.315,36.288 -83.315,36.288 v 0 l -68.354,12.884 -39.018,33.067 -45.472,33.128 z"
               style="fill:url(#linearGradient48);stroke:none"
               id="path50" />
          </g>
        </g>
      </g>
    </g>
    <g
       id="g52"
       style="display:inline"
       transform="matrix(0.40265377,0,0,-0.40265377,-53.267396,339.83699)">
      <g
         id="g54">
        <g
           id="g60">
          <g
             id="g62">
            <path
               d="m 285.478,788.221 c -30.999,-2.57 -41.092,-39.29 -69.821,-49.601 v 0 c -30.51,-10.951 -49.286,-2.577 -83.316,44.865 v 0 -30.116 c 15.623,-3.049 34.361,-4.459 45.765,-29.721 v 0 c 12.621,-27.959 -6.703,-62.333 5.085,-90.242 v 0 c 11.495,-27.217 39.256,-41.183 64.15,-42.515 v 0 c 22.61,-1.212 34.96,11.132 46.897,23.475 v 0 c 12.908,13.349 25.33,26.697 49.718,22.904 v 0 c 41.02,-6.38 49.87,-56.743 85.271,-55.828 v 0 c 1.828,0.047 3.611,0.227 5.358,0.513 v 0 c -4.91,4.711 -9.16,9.972 -12.399,15.592 v 0 c -14.123,24.51 1.174,44.313 -14.599,58.038 v 0 c -7.35,6.395 -15.683,5.485 -24.174,4.575 v 0 c -8.305,-0.89 -16.761,-1.78 -24.594,4.166 v 0 c -20.778,15.772 0.489,61.375 -19.166,95.766 v 0 c -11.432,20.004 -30.059,28.351 -48.834,28.351 v 0 c -1.782,0 -3.562,-0.075 -5.341,-0.222"
               style="fill:url(#linearGradient68);stroke:none"
               id="path70" />
          </g>
        </g>
      </g>
    </g>
    <g
       id="g72"
       style="display:inline"
       transform="matrix(0.40265377,0,0,-0.40265377,-53.267396,339.83699)">
      <g
         id="g74">
        <g
           id="g80">
          <g
             id="g82">
            <path
               d="m 434.585,581.955 c 19.663,-18.864 49.916,-28.871 68.242,-17.534 v 0 77.439 c -15.516,-6.486 -34.516,-54.378 -68.242,-59.905"
               style="fill:url(#linearGradient88);stroke:none"
               id="path90" />
          </g>
        </g>
      </g>
    </g>
    <g
       id="g92"
       style="display:inline"
       transform="matrix(0.35277777,0,0,-0.35277777,-28.977253,224.90424)">
      <g
         id="g94"
         clip-path="url(#clipPath98)"
         style="display:none">
        <g
           id="g100">
          <g
             id="g102" />
          <g
             id="g276">
            <g
               clip-path="url(#clipPath106)"
               opacity="0.100006"
               id="g274">
              <g
                 id="g272">
                <g
                   clip-path="url(#clipPath110)"
                   id="g270">
                  <g
                     id="g268">
                    <g
                       transform="scale(1,-1)"
                       id="g266">
                      <g
                         id="g264">
                        <path
                           d="m 132.341,-382.378 c 30.06691,0 60.13381,0 90.20072,0 -1.10254,-26.6161 -2.28955,-32.18053 -3.51807,-58.97485 -29.10011,0.70557 -57.12649,11.48042 -86.68265,21.059 0,19.69522 0,18.22062 0,37.91585 z"
                           style="fill:#ffffff;fill-opacity:1;fill-rule:nonzero;stroke:none"
                           id="path112" />
                        <path
                           d="m 222.54172,-382.378 c 11.09815,0 22.19629,0 33.29444,0 -1.11963,-25.98622 -2.354,-30.96471 -3.64599,-57.19604 -10.68995,-0.93066 -21.96046,-2.26513 -33.16652,-1.77881 1.22852,26.79432 2.41553,32.35875 3.51807,58.97485 z"
                           style="fill:#ffffff;fill-opacity:1;fill-rule:nonzero;stroke:none"
                           id="path114" />
                        <path
                           d="m 255.83616,-382.378 c 20.18409,0 40.36769,0 60.55129,0 -0.81054,-24.2372 -1.69921,-27.39539 -2.62646,-51.77126 -21.60938,0.34082 -41.78713,-3.92088 -61.57082,-5.42478 1.29199,26.23133 2.52636,31.20982 3.64599,57.19604 z"
                           style="fill:#ffffff;fill-opacity:1;fill-rule:nonzero;stroke:none"
                           id="path116" />
                        <path
                           d="m 316.38745,-382.378 c 20.98146,0 41.96291,0 62.94436,0 -0.66308,-27.30164 -1.36523,-33.45152 -2.08691,-60.78148 -20.53517,2.59814 -41.09377,8.67428 -63.48391,9.01022 0.92725,24.37587 1.81592,27.53406 2.62646,51.77126 z"
                           style="fill:#ffffff;fill-opacity:1;fill-rule:nonzero;stroke:none"
                           id="path118" />
                        <path
                           d="m 379.33181,-382.378 c 19.34816,0 38.69631,0 58.04495,0 -0.45557,-30.1444 -0.93213,-39.12776 -1.41846,-69.28681 -20.60401,0.48632 -39.71535,6.08151 -58.7134,8.50533 0.72168,27.32996 1.42383,33.47984 2.08691,60.78148 z"
                           style="fill:#ffffff;fill-opacity:1;fill-rule:nonzero;stroke:none"
                           id="path120" />
                        <path
                           d="m 437.37676,-382.378 c 21.8169,0 43.63331,0 65.45022,0 0,-28.36414 0,-35.55893 0,-63.92355 -21.29493,-2.05224 -44.22316,-5.8701 -66.86868,-5.36326 0.48633,30.15905 0.96289,39.14241 1.41846,69.28681 z"
                           style="fill:#ffffff;fill-opacity:1;fill-rule:nonzero;stroke:none"
                           id="path122" />
                        <path
                           d="m 132.341,-420.29385 c 21.09864,-6.83786 41.41847,-14.2851 61.9053,-18.24407 -1.94678,-25.71034 -3.92383,-51.46315 -5.9004,-77.21597 -20.43311,8.2065 -38.62989,22.29385 -56.0049,36.37338 0,19.69522 0,39.39094 0,59.08666 z"
                           style="fill:#ffffff;fill-opacity:1;fill-rule:nonzero;stroke:none"
                           id="path124" />
                        <path
                           d="m 194.2463,-438.53792 c 8.21191,-1.5869 16.45069,-2.61327 24.77735,-2.81493 -1.55762,-26.68689 -3.15772,-53.43336 -4.75733,-80.17983 -8.66064,0.53467 -17.27295,2.30566 -25.92042,5.77879 1.97657,25.75282 3.95362,51.50563 5.9004,77.21597 z"
                           style="fill:#ffffff;fill-opacity:1;fill-rule:nonzero;stroke:none"
                           id="path126" />
                        <path
                           d="m 219.02365,-441.35285 c 11.20606,-0.48632 22.47657,0.84815 33.16652,1.77881 -1.29249,-26.23085 -2.6421,-52.54275 -3.99122,-78.85514 -11.50977,-2.42528 -22.76124,-3.79295 -33.93263,-3.1035 1.59961,26.74647 3.19971,53.49294 4.75733,80.17983 z"
                           style="fill:#ffffff;fill-opacity:1;fill-rule:nonzero;stroke:none"
                           id="path128" />
                        <path
                           d="m 252.19017,-439.57404 c 19.78369,1.5039 39.96144,5.7656 61.57082,5.42478 -0.82666,-24.37539 -1.6919,-48.79716 -2.55762,-73.21893 -23.74708,0.81787 -43.63966,-7.45211 -63.00442,-11.06099 1.34912,26.31239 2.69873,52.62429 3.99122,78.85514 z"
                           style="fill:#ffffff;fill-opacity:1;fill-rule:nonzero;stroke:none"
                           id="path130" />
                        <path
                           d="m 313.76099,-434.14926 c 22.39014,-0.33594 42.94874,-6.41208 63.48391,-9.01022 -0.72168,-27.32947 -1.4624,-54.66871 -2.20362,-82.00746 -19.77002,6.23484 -39.61671,16.99163 -63.83791,17.79875 0.86572,24.42177 1.73096,48.84354 2.55762,73.21893 z"
                           style="fill:#ffffff;fill-opacity:1;fill-rule:nonzero;stroke:none"
                           id="path132" />
                        <path
                           d="m 377.2449,-443.15948 c 18.99805,-2.42382 38.10939,-8.01901 58.7134,-8.50533 -0.6167,-30.15905 -1.24365,-60.32299 -1.87061,-90.48692 -22.17969,1.1665 -40.72023,11.16743 -59.04641,16.98479 0.74122,27.33875 1.48194,54.67799 2.20362,82.00746 z"
                           style="fill:#ffffff;fill-opacity:1;fill-rule:nonzero;stroke:none"
                           id="path134" />
                        <path
                           d="m 435.9583,-451.66481 c 22.64552,-0.50684 45.57375,3.31102 66.86868,5.36326 0,-28.36512 0,-56.72974 0,-85.09437 -20.74659,-4.92576 -44.751,-11.9726 -68.73929,-10.75581 0.62696,30.16393 1.25391,60.32787 1.87061,90.48692 z"
                           style="fill:#ffffff;fill-opacity:1;fill-rule:nonzero;stroke:none"
                           id="path136" />
                        <path
                           d="m 132.341,-479.38051 c 17.37501,-14.07953 35.57179,-28.16688 56.0049,-36.37338 -2.38818,-25.47548 -4.77637,-50.95096 -7.13476,-76.38347 -20.22218,12.51802 -35.92433,32.92125 -48.87014,53.6697 0,19.69571 0,39.39143 0,59.08715 z"
                           style="fill:#ffffff;fill-opacity:1;fill-rule:nonzero;stroke:none"
                           id="path138" />
                        <path
                           d="m 188.3459,-515.75389 c 0.49805,-0.2002 0.99659,-0.39453 1.49463,-0.5835 -2.41748,-25.56629 -4.83447,-51.1321 -7.22119,-76.65494 -0.47168,0.28076 -0.94141,0.56542 -1.4082,0.85497 2.35839,25.43251 4.74658,50.90799 7.13476,76.38347 z"
                           style="fill:#ffffff;fill-opacity:1;fill-rule:nonzero;stroke:none"
                           id="path140" />
                        <path
                           d="m 189.84053,-516.33739 c 19.29591,-7.31881 38.44045,-6.28903 58.35842,-2.09179 -1.34961,-26.31238 -2.69922,-52.62428 -3.99121,-78.85513 -20.88331,-7.85543 -42.01759,-7.34567 -61.5884,4.29198 2.38672,25.52284 4.80371,51.08865 7.22119,76.65494 z"
                           style="fill:#ffffff;fill-opacity:1;fill-rule:nonzero;stroke:none"
                           id="path142" />
                        <path
                           d="m 248.19895,-518.42918 c 19.36476,3.60888 39.25734,11.87886 63.00442,11.06099 -0.86523,-24.42177 -1.73096,-48.84305 -2.55762,-73.21892 -26.8003,1.4995 -45.6714,-10.08101 -64.43801,-16.6972 1.29199,26.23085 2.6416,52.54275 3.99121,78.85513 z"
                           style="fill:#ffffff;fill-opacity:1;fill-rule:nonzero;stroke:none"
                           id="path144" />
                        <path
                           d="m 311.20337,-507.36819 c 24.2212,-0.80712 44.06789,-11.56391 63.83791,-17.79875 -0.74072,-27.33924 -1.48193,-54.67799 -2.20361,-82.00795 -18.67676,11.4311 -37.35499,25.10829 -64.19192,26.58778 0.82666,24.37587 1.69239,48.79715 2.55762,73.21892 z"
                           style="fill:#ffffff;fill-opacity:1;fill-rule:nonzero;stroke:none"
                           id="path146" />
                        <path
                           d="m 375.04128,-525.16694 c 18.32618,-5.81736 36.86672,-15.81829 59.04641,-16.98479 -0.62695,-30.16442 -1.2539,-60.32836 -1.87011,-90.48741 -24.43165,2.13916 -42.01418,14.79926 -59.37991,25.46425 0.72168,27.32996 1.46289,54.66871 2.20361,82.00795 z"
                           style="fill:#ffffff;fill-opacity:1;fill-rule:nonzero;stroke:none"
                           id="path148" />
                        <path
                           d="m 434.08769,-542.15173 c 23.98829,-1.21679 47.9927,5.83005 68.73929,10.75581 0,-28.36511 0,-56.72973 0,-85.09485 -19.96339,-9.02974 -44.70412,-18.37883 -70.6094,-16.14837 0.61621,30.15905 1.24316,60.32299 1.87011,90.48741 z"
                           style="fill:#ffffff;fill-opacity:1;fill-rule:nonzero;stroke:none"
                           id="path150" />
                        <path
                           d="m 132.341,-538.46766 c 13.24463,-21.22745 29.37501,-42.09406 50.27834,-54.52467 0.0518,-3.39257 0.104,-6.78513 0.15674,-10.17623 -20.7173,12.36323 -37.0259,35.12778 -50.43508,57.31519 0,2.4619 0,4.9238 0,7.38571 z"
                           style="fill:#ffffff;fill-opacity:1;fill-rule:nonzero;stroke:none"
                           id="path152" />
                        <path
                           d="m 132.341,-545.85337 c 13.40918,-22.18741 29.71778,-44.95196 50.43508,-57.31519 0.0527,-3.39159 0.10547,-6.7822 0.15967,-10.17232 -20.2256,12.18598 -36.75099,35.3851 -50.59475,60.10179 0,2.46191 0,4.92381 0,7.38572 z"
                           style="fill:#fbfbfb;fill-opacity:1;fill-rule:nonzero;stroke:none"
                           id="path154" />
                        <path
                           d="m 132.341,-553.23909 c 13.84376,-24.71669 30.36915,-47.91581 50.59475,-60.10179 0.0537,-3.38963 0.10791,-6.77878 0.16308,-10.16646 -19.53028,11.93501 -36.30031,34.59018 -50.75783,62.88206 0,2.46239 0,4.92429 0,7.38619 z"
                           style="fill:#efefef;fill-opacity:1;fill-rule:nonzero;stroke:none"
                           id="path156" />
                        <path
                           d="m 132.341,-560.62528 c 14.45752,-28.29188 31.22755,-50.94705 50.75783,-62.88206 0.0552,-3.38817 0.11084,-6.77536 0.16748,-10.16158 -18.73389,11.64839 -35.76417,33.26646 -50.92531,65.65793 0,2.4619 0,4.9238 0,7.38571 z"
                           style="fill:#dbdbdb;fill-opacity:1;fill-rule:nonzero;stroke:none"
                           id="path158" />
                        <path
                           d="m 132.341,-568.01099 c 15.16114,-32.39147 32.19142,-54.00954 50.92531,-65.65793 0.0562,-3.38621 0.11328,-6.77096 0.17139,-10.15523 -17.93702,11.36079 -35.23195,31.93688 -51.0967,68.42744 0,2.46191 0,4.92381 0,7.38572 z"
                           style="fill:#bfbfbf;fill-opacity:1;fill-rule:nonzero;stroke:none"
                           id="path160" />
                        <path
                           d="m 132.341,-575.39671 c 15.86475,-36.49056 33.15968,-57.06665 51.0967,-68.42744 0.0581,-3.38377 0.1167,-6.76657 0.17627,-10.14839 -17.2422,11.1103 -34.79445,31.1234 -51.27297,71.19012 0,2.46191 0,4.92381 0,7.38571 z"
                           style="fill:#9b9b9b;fill-opacity:1;fill-rule:nonzero;stroke:none"
                           id="path162" />
                        <path
                           d="m 132.341,-582.78242 c 16.47852,-40.06672 34.03077,-60.07982 51.27297,-71.19012 0.0596,-3.38182 0.11963,-6.76218 0.18115,-10.14156 -16.75049,10.93306 -34.54103,31.34996 -51.45412,73.94549 0,2.4619 0,4.92429 0,7.38619 z"
                           style="fill:#707070;fill-opacity:1;fill-rule:nonzero;stroke:none"
                           id="path164" />
                        <path
                           d="m 132.341,-590.16861 c 16.91309,-42.59553 34.70363,-63.01243 51.45412,-73.94549 0.0615,-3.37889 0.12354,-6.75681 0.18652,-10.13374 -16.56397,10.86567 -34.563,33.13853 -51.64064,76.69352 0,2.4619 0,4.9238 0,7.38571 z"
                           style="fill:#3c3c3c;fill-opacity:1;fill-rule:nonzero;stroke:none"
                           id="path166" />
                        <path
                           d="m 182.61934,-592.99233 c 9.11719,-5.42137 18.57374,-8.42819 28.18653,-9.29879 -0.31787,-3.35301 -0.63476,-6.70505 -0.95117,-10.05562 -9.46192,0.88964 -18.06348,3.7993 -27.07862,9.17818 -0.0527,3.3911 -0.10498,6.78366 -0.15674,10.17623 z"
                           style="fill:#ffffff;fill-opacity:1;fill-rule:nonzero;stroke:none"
                           id="path168" />
                        <path
                           d="m 182.77608,-603.16856 c 9.01514,-5.37888 17.6167,-8.28854 27.07862,-9.17818 -0.31592,-3.35106 -0.63135,-6.70066 -0.94629,-10.04928 -9.06543,0.93897 -17.22559,3.78905 -25.97266,9.05514 -0.0542,3.39012 -0.10694,6.78073 -0.15967,10.17232 z"
                           style="fill:#fbfbfb;fill-opacity:1;fill-rule:nonzero;stroke:none"
                           id="path170" />
                        <path
                           d="m 182.93575,-613.34088 c 8.74707,-5.26609 16.90723,-8.11617 25.97266,-9.05514 -0.31445,-3.34861 -0.62842,-6.69626 -0.94092,-10.04243 -8.50537,1.00927 -16.50049,3.82371 -24.86866,8.93111 -0.0552,3.38768 -0.10937,6.77683 -0.16308,10.16646 z"
                           style="fill:#efefef;fill-opacity:1;fill-rule:nonzero;stroke:none"
                           id="path172" />
                        <path
                           d="m 183.09883,-623.50734 c 8.36817,-5.1074 16.36329,-7.92184 24.86866,-8.93111 -0.31299,-3.34569 -0.625,-6.6904 -0.93554,-10.03414 -7.86329,1.08935 -15.83253,3.87938 -23.76564,8.80367 -0.0566,3.38622 -0.1123,6.77341 -0.16748,10.16158 z"
                           style="fill:#dbdbdb;fill-opacity:1;fill-rule:nonzero;stroke:none"
                           id="path174" />
                        <path
                           d="m 183.26631,-633.66892 c 7.93311,-4.92429 15.90235,-7.71432 23.76564,-8.80367 -0.31104,-3.34325 -0.6211,-6.68503 -0.92969,-10.02535 -7.22071,1.16943 -15.16651,3.93211 -22.66456,8.67379 -0.0581,3.38427 -0.11524,6.76902 -0.17139,10.15523 z"
                           style="fill:#bfbfbf;fill-opacity:1;fill-rule:nonzero;stroke:none"
                           id="path176" />
                        <path
                           d="m 183.4377,-643.82415 c 7.49805,-4.74168 15.44385,-7.50436 22.66456,-8.67379 -0.30908,-3.34032 -0.6167,-6.67917 -0.92285,-10.01656 -6.66016,1.23974 -14.4463,3.95946 -21.56544,8.54196 -0.0596,3.38182 -0.11817,6.76462 -0.17627,10.14839 z"
                           style="fill:#9b9b9b;fill-opacity:1;fill-rule:nonzero;stroke:none"
                           id="path178" />
                        <path
                           d="m 183.61397,-653.97254 c 7.11914,-4.5825 14.90528,-7.30222 21.56544,-8.54196 -0.30664,-3.3369 -0.61231,-6.67233 -0.91602,-10.00581 -6.26367,1.28857 -13.61768,3.9365 -20.46827,8.40621 -0.0615,3.37938 -0.12158,6.75974 -0.18115,10.14156 z"
                           style="fill:#707070;fill-opacity:1;fill-rule:nonzero;stroke:none"
                           id="path180" />
                        <path
                           d="m 183.79512,-664.1141 c 6.85059,-4.46971 14.2046,-7.11764 20.46827,-8.40621 -0.3042,-3.33397 -0.60693,-6.66599 -0.90869,-9.99557 -6.11329,1.30762 -12.62403,3.84081 -19.37306,8.26804 -0.063,3.37693 -0.125,6.75485 -0.18652,10.13374 z"
                           style="fill:#3c3c3c;fill-opacity:1;fill-rule:nonzero;stroke:none"
                           id="path182" />
                        <path
                           d="m 210.80587,-602.29112 c 11.021,-0.99853 22.24708,0.81054 33.40187,5.00681 -0.16162,-3.27879 -0.32227,-6.55661 -0.48193,-9.83296 -11.15821,-4.27147 -22.69825,-6.31882 -33.87111,-5.22947 0.31641,3.35057 0.6333,6.70261 0.95117,10.05562 z"
                           style="fill:#ffffff;fill-opacity:1;fill-rule:nonzero;stroke:none"
                           id="path184" />
                        <path
                           d="m 209.8547,-612.34674 c 11.17286,-1.08935 22.7129,0.958 33.87111,5.22947 -0.15967,-3.27587 -0.31836,-6.55076 -0.47559,-9.82369 -11.16895,-4.47117 -22.76905,-6.78415 -34.34181,-5.45506 0.31494,3.34862 0.63037,6.69822 0.94629,10.04928 z"
                           style="fill:#fbfbfb;fill-opacity:1;fill-rule:nonzero;stroke:none"
                           id="path186" />
                        <path
                           d="m 208.90841,-622.39602 c 11.57276,-1.32909 23.17286,0.98389 34.34181,5.45506 -0.15771,-3.27342 -0.31396,-6.54489 -0.46924,-9.81441 -11.18311,-4.7534 -22.67579,-7.35007 -34.81349,-5.68308 0.3125,3.34617 0.62647,6.69382 0.94092,10.04243 z"
                           style="fill:#efefef;fill-opacity:1;fill-rule:nonzero;stroke:none"
                           id="path188" />
                        <path
                           d="m 207.96749,-632.43845 c 12.1377,-1.66699 23.63038,0.92968 34.81349,5.68308 -0.15478,-3.27001 -0.30859,-6.53806 -0.46142,-9.80416 -11.19971,-5.07615 -22.50197,-7.96823 -35.28761,-5.91306 0.31054,3.34374 0.62255,6.68845 0.93554,10.03414 z"
                           style="fill:#dbdbdb;fill-opacity:1;fill-rule:nonzero;stroke:none"
                           id="path190" />
                        <path
                           d="m 207.03195,-642.47259 c 12.78564,-2.05517 24.0879,0.83691 35.28761,5.91306 -0.15235,-3.2661 -0.30371,-6.53024 -0.45313,-9.79244 -11.2168,-5.39988 -22.33057,-8.5898 -35.76417,-6.14597 0.30859,3.34032 0.61865,6.6821 0.92969,10.02535 z"
                           style="fill:#bfbfbf;fill-opacity:1;fill-rule:nonzero;stroke:none"
                           id="path192" />
                        <path
                           d="m 206.10226,-652.49794 c 13.4336,-2.44383 24.54737,0.74609 35.76417,6.14597 -0.1499,-3.26219 -0.29834,-6.52194 -0.44482,-9.78023 -11.23145,-5.68162 -22.24318,-9.16402 -36.2422,-6.3823 0.30615,3.33739 0.61377,6.67624 0.92285,10.01656 z"
                           style="fill:#9b9b9b;fill-opacity:1;fill-rule:nonzero;stroke:none"
                           id="path194" />
                        <path
                           d="m 205.17941,-662.5145 c 13.99902,-2.78172 25.01075,0.70068 36.2422,6.3823 -0.14649,-3.2578 -0.292,-6.51315 -0.43506,-9.76656 -11.24171,-5.88132 -22.32423,-9.64351 -36.72316,-6.62155 0.30371,3.33348 0.60938,6.66891 0.91602,10.00581 z"
                           style="fill:#707070;fill-opacity:1;fill-rule:nonzero;stroke:none"
                           id="path196" />
                        <path
                           d="m 204.26339,-672.52031 c 14.39893,-3.02196 25.48145,0.74023 36.72316,6.62155 -0.14356,-3.2534 -0.28516,-6.50388 -0.4253,-9.7524 -11.2456,-5.957 -22.65577,-9.9775 -37.20655,-6.86472 0.30176,3.32958 0.60449,6.6616 0.90869,9.99557 z"
                           style="fill:#3c3c3c;fill-opacity:1;fill-rule:nonzero;stroke:none"
                           id="path198" />
                        <path
                           d="m 244.20774,-597.28431 c 18.76661,6.61619 37.63771,18.1967 64.43801,16.6972 -0.10303,-3.04686 -0.20605,-6.09324 -0.3081,-9.13864 -26.93165,1.52881 -45.87111,-10.64546 -64.61184,-17.39152 0.15966,3.27635 0.32031,6.55417 0.48193,9.83296 z"
                           style="fill:#ffffff;fill-opacity:1;fill-rule:nonzero;stroke:none"
                           id="path200" />
                        <path
                           d="m 243.72581,-607.11727 c 18.74073,6.74606 37.68019,18.92033 64.61184,17.39152 -0.10205,-3.04539 -0.20313,-6.08981 -0.30371,-9.13375 -27.27785,1.60595 -46.11086,-10.99507 -64.78372,-18.08146 0.15723,3.27293 0.31592,6.54782 0.47559,9.82369 z"
                           style="fill:#fbfbfb;fill-opacity:1;fill-rule:nonzero;stroke:none"
                           id="path202" />
                        <path
                           d="m 243.25022,-616.94096 c 18.67286,7.08639 37.50587,19.68741 64.78372,18.08146 -0.10059,-3.04393 -0.20069,-6.08639 -0.29981,-9.12837 -27.76661,1.71532 -46.3755,-11.19966 -64.95315,-18.7675 0.15528,3.26952 0.31153,6.54099 0.46924,9.81441 z"
                           style="fill:#efefef;fill-opacity:1;fill-rule:nonzero;stroke:none"
                           id="path204" />
                        <path
                           d="m 242.78098,-626.75537 c 18.57765,7.56784 37.18654,20.48282 64.95315,18.7675 -0.0986,-3.04198 -0.19678,-6.0825 -0.29443,-9.12252 -28.32716,1.84032 -46.65236,-11.32857 -65.12014,-19.44914 0.15283,3.2661 0.30664,6.53415 0.46142,9.80416 z"
                           style="fill:#dbdbdb;fill-opacity:1;fill-rule:nonzero;stroke:none"
                           id="path206" />
                        <path
                           d="m 242.31956,-636.55953 c 18.46778,8.12057 36.79298,21.28946 65.12014,19.44914 -0.0972,-3.03954 -0.19336,-6.07859 -0.28858,-9.11618 -28.88819,1.96582 -46.92726,-11.45307 -65.28469,-20.1254 0.14942,3.2622 0.30078,6.52634 0.45313,9.79244 z"
                           style="fill:#bfbfbf;fill-opacity:1;fill-rule:nonzero;stroke:none"
                           id="path208" />
                        <path
                           d="m 241.86643,-646.35197 c 18.35743,8.67233 36.3965,22.09122 65.28469,20.1254 -0.0957,-3.03709 -0.18994,-6.0737 -0.2832,-9.10884 -29.37696,2.07469 -47.18459,-11.64253 -65.44631,-20.79679 0.14648,3.25829 0.29492,6.51804 0.44482,9.78023 z"
                           style="fill:#9b9b9b;fill-opacity:1;fill-rule:nonzero;stroke:none"
                           id="path210" />
                        <path
                           d="m 241.42161,-656.1322 c 18.26172,9.15426 36.06935,22.87148 65.44631,20.79679 -0.0933,-3.03515 -0.18555,-6.06882 -0.27686,-9.10104 -29.72266,2.15185 -47.41066,-11.96772 -65.60451,-21.46231 0.14306,3.25341 0.28857,6.50876 0.43506,9.76656 z"
                           style="fill:#707070;fill-opacity:1;fill-rule:nonzero;stroke:none"
                           id="path212" />
                        <path
                           d="m 240.98655,-665.89876 c 18.19385,9.49459 35.88185,23.61416 65.60451,21.46231 -0.0908,-3.0327 -0.18115,-6.06394 -0.26953,-9.09371 -29.85401,2.18163 -47.59181,-12.49702 -65.76028,-22.121 0.14014,3.24852 0.28174,6.499 0.4253,9.7524 z"
                           style="fill:#3c3c3c;fill-opacity:1;fill-rule:nonzero;stroke:none"
                           id="path214" />
                        <path
                           d="m 308.64575,-580.58711 c 26.83693,-1.47949 45.51516,-15.15668 64.19192,-26.58778 -0.0903,-3.416 -0.18018,-6.832 -0.26953,-10.248 -18.62989,11.65424 -37.28126,26.18885 -64.23049,27.69714 0.10205,3.0454 0.20507,6.09178 0.3081,9.13864 z"
                           style="fill:#ffffff;fill-opacity:1;fill-rule:nonzero;stroke:none"
                           id="path216" />
                        <path
                           d="m 308.33765,-589.72575 c 26.94923,-1.50829 45.6006,-16.0429 64.23049,-27.69714 -0.0894,-3.416 -0.17871,-6.83152 -0.26758,-10.24752 -18.50587,12.24311 -37.0215,27.22645 -64.26662,28.81091 0.10058,3.04394 0.20166,6.08836 0.30371,9.13375 z"
                           style="fill:#fbfbfb;fill-opacity:1;fill-rule:nonzero;stroke:none"
                           id="path218" />
                        <path
                           d="m 308.03394,-598.8595 c 27.24512,-1.58446 45.76075,-16.5678 64.26662,-28.81091 -0.0889,-3.41551 -0.17725,-6.83053 -0.26514,-10.24605 -18.33106,13.07514 -36.63673,28.23621 -64.30129,29.92859 0.0991,3.04198 0.19922,6.08444 0.29981,9.12837 z"
                           style="fill:#efefef;fill-opacity:1;fill-rule:nonzero;stroke:none"
                           id="path220" />
                        <path
                           d="m 307.73413,-607.98787 c 27.66456,-1.69238 45.97023,-16.85345 64.30129,-29.92859 -0.0884,-3.41502 -0.17578,-6.83005 -0.26269,-10.24458 -18.13038,14.02875 -36.188,29.23522 -64.33303,31.05065 0.0976,3.04002 0.1958,6.08054 0.29443,9.12252 z"
                           style="fill:#dbdbdb;fill-opacity:1;fill-rule:nonzero;stroke:none"
                           id="path222" />
                        <path
                           d="m 307.4397,-617.11039 c 28.14503,-1.81543 46.20265,-17.0219 64.33303,-31.05065 -0.0874,-3.41503 -0.17432,-6.82956 -0.26026,-10.24361 -17.9292,14.98236 -35.73682,30.23913 -64.36135,32.17808 0.0952,3.03759 0.19141,6.07664 0.28858,9.11618 z"
                           style="fill:#bfbfbf;fill-opacity:1;fill-rule:nonzero;stroke:none"
                           id="path224" />
                        <path
                           d="m 307.15112,-626.22657 c 28.62453,-1.93895 46.43215,-17.19572 64.36135,-32.17808 -0.0864,-3.41454 -0.17187,-6.82858 -0.25732,-10.24263 -17.75391,15.81487 -35.34376,31.265 -64.38723,33.31187 0.0933,3.03514 0.1875,6.07175 0.2832,9.10884 z"
                           style="fill:#9b9b9b;fill-opacity:1;fill-rule:nonzero;stroke:none"
                           id="path226" />
                        <path
                           d="m 306.86792,-635.33541 c 29.04347,-2.04687 46.63332,-17.497 64.38723,-33.31187 -0.085,-3.41356 -0.16943,-6.82712 -0.25342,-10.24068 -17.63038,16.40374 -35.07032,32.32847 -64.41067,34.45151 0.0913,3.03222 0.1836,6.06589 0.27686,9.10104 z"
                           style="fill:#707070;fill-opacity:1;fill-rule:nonzero;stroke:none"
                           id="path228" />
                        <path
                           d="m 306.59106,-644.43645 c 29.34035,-2.12304 46.78029,-18.04777 64.41067,-34.45151 -0.0845,-3.41307 -0.16797,-6.82614 -0.25049,-10.23873 -17.5835,16.6264 -34.97755,33.44468 -64.42971,35.59653 0.0884,3.02977 0.17871,6.06101 0.26953,9.09371 z"
                           style="fill:#3c3c3c;fill-opacity:1;fill-rule:nonzero;stroke:none"
                           id="path230" />
                        <path
                           d="m 372.83767,-607.17489 c 17.36573,-10.66499 34.94826,-23.32509 59.37991,-25.46425 -0.0772,-3.77 -0.1543,-7.53951 -0.23096,-11.30952 -24.52784,2.18115 -42.09426,15.65277 -59.41848,26.52577 0.0893,3.416 0.1792,6.832 0.26953,10.248 z"
                           style="fill:#ffffff;fill-opacity:1;fill-rule:nonzero;stroke:none"
                           id="path232" />
                        <path
                           d="m 372.56814,-617.42289 c 17.32422,-10.873 34.89064,-24.34462 59.41848,-26.52577 -0.0767,-3.76951 -0.15332,-7.53903 -0.22949,-11.30854 -24.78322,2.291 -42.24123,16.16448 -59.45657,27.58679 0.0889,3.416 0.17822,6.83152 0.26758,10.24752 z"
                           style="fill:#fbfbfb;fill-opacity:1;fill-rule:nonzero;stroke:none"
                           id="path234" />
                        <path
                           d="m 372.30056,-627.67041 c 17.21534,-11.42231 34.67335,-25.29579 59.45657,-27.58679 -0.0762,-3.76952 -0.15235,-7.53903 -0.22852,-11.30855 -25.14356,2.44677 -42.43166,16.45061 -59.49319,28.64929 0.0879,3.41552 0.17627,6.83054 0.26514,10.24605 z"
                           style="fill:#efefef;fill-opacity:1;fill-rule:nonzero;stroke:none"
                           id="path236" />
                        <path
                           d="m 372.03542,-637.91646 c 17.06153,-12.19868 34.34963,-26.20252 59.49319,-28.64929 -0.0757,-3.76903 -0.15137,-7.53854 -0.22705,-11.30757 -25.55665,2.62548 -42.64357,16.62347 -59.52883,29.71228 0.0869,3.41453 0.17432,6.82956 0.26269,10.24458 z"
                           style="fill:#dbdbdb;fill-opacity:1;fill-rule:nonzero;stroke:none"
                           id="path238" />
                        <path
                           d="m 371.77273,-648.16104 c 16.88526,-13.08881 33.97218,-27.0868 59.52883,-29.71228 -0.0752,-3.76902 -0.15039,-7.53805 -0.22559,-11.30708 -25.97022,2.80419 -42.8545,16.79681 -59.5635,30.77575 0.0859,3.41405 0.17286,6.82858 0.26026,10.24361 z"
                           style="fill:#bfbfbf;fill-opacity:1;fill-rule:nonzero;stroke:none"
                           id="path240" />
                        <path
                           d="m 371.51247,-658.40465 c 16.709,-13.97894 33.59328,-27.97156 59.5635,-30.77575 -0.0747,-3.76902 -0.14941,-7.53756 -0.22412,-11.3061 -26.33057,2.95946 -43.04103,17.0844 -59.5967,31.83922 0.0854,3.41405 0.1709,6.82809 0.25732,10.24263 z"
                           style="fill:#9b9b9b;fill-opacity:1;fill-rule:nonzero;stroke:none"
                           id="path242" />
                        <path
                           d="m 371.25515,-668.64728 c 16.55567,-14.75482 33.26613,-28.87976 59.5967,-31.83922 -0.0742,-3.76854 -0.14844,-7.53708 -0.22217,-11.30562 -26.58594,3.06981 -43.18165,17.60003 -59.62795,32.90416 0.084,3.41356 0.16846,6.82712 0.25342,10.24068 z"
                           style="fill:#707070;fill-opacity:1;fill-rule:nonzero;stroke:none"
                           id="path244" />
                        <path
                           d="m 371.00173,-678.88796 c 16.4463,-15.30413 33.04201,-29.83435 59.62795,-32.90416 -0.0737,-3.76805 -0.14746,-7.53659 -0.2207,-11.30464 -26.68263,3.11181 -43.25295,18.45744 -59.65774,33.97007 0.0825,3.41259 0.16602,6.82566 0.25049,10.23873 z"
                           style="fill:#3c3c3c;fill-opacity:1;fill-rule:nonzero;stroke:none"
                           id="path246" />
                        <path
                           d="m 432.21758,-632.63914 c 25.90528,-2.23046 50.64601,7.11863 70.6094,16.14837 0,-3.54539 0,-7.09128 0,-10.63667 -19.9297,-9.2065 -44.85207,-19.09513 -70.84036,-16.82122 0.0767,3.77001 0.15381,7.53952 0.23096,11.30952 z"
                           style="fill:#ffffff;fill-opacity:1;fill-rule:nonzero;stroke:none"
                           id="path248" />
                        <path
                           d="m 431.98662,-643.94866 c 25.98829,-2.27391 50.91066,7.61472 70.84036,16.82122 0,-3.5454 0,-7.09128 0,-10.63667 -19.84083,-9.67135 -44.86477,-19.88224 -71.06985,-17.49309 0.0762,3.76951 0.15283,7.53903 0.22949,11.30854 z"
                           style="fill:#fbfbfb;fill-opacity:1;fill-rule:nonzero;stroke:none"
                           id="path250" />
                        <path
                           d="m 431.75713,-655.2572 c 26.20508,-2.38915 51.22902,7.82174 71.06985,17.49309 0,-3.54589 0,-7.09128 0,-10.63717 -19.71583,-10.32856 -44.78566,-20.71573 -71.29837,-18.16447 0.0762,3.76952 0.15234,7.53903 0.22852,11.30855 z"
                           style="fill:#efefef;fill-opacity:1;fill-rule:nonzero;stroke:none"
                           id="path252" />
                        <path
                           d="m 431.52861,-666.56575 c 26.51271,-2.55126 51.58254,7.83591 71.29837,18.16447 0,-3.54539 0,-7.09079 0,-10.63667 -19.57179,-11.08198 -44.66066,-21.57315 -71.52542,-18.83537 0.0757,3.76903 0.15137,7.53854 0.22705,11.30757 z"
                           style="fill:#dbdbdb;fill-opacity:1;fill-rule:nonzero;stroke:none"
                           id="path254" />
                        <path
                           d="m 431.30156,-677.87332 c 26.86476,-2.73778 51.95363,7.75339 71.52542,18.83537 0,-3.54539 0,-7.09128 0,-10.63667 -19.42823,-11.83589 -44.5342,-22.42959 -71.75101,-19.50578 0.0752,3.76903 0.15039,7.53806 0.22559,11.30708 z"
                           style="fill:#bfbfbf;fill-opacity:1;fill-rule:nonzero;stroke:none"
                           id="path256" />
                        <path
                           d="m 431.07597,-689.1804 c 27.21681,-2.92381 52.32278,7.66989 71.75101,19.50578 0,-3.5454 0,-7.09128 0,-10.63668 -19.30275,-12.49359 -44.45119,-23.26161 -71.97513,-20.1752 0.0747,3.76854 0.14942,7.53708 0.22412,11.3061 z"
                           style="fill:#9b9b9b;fill-opacity:1;fill-rule:nonzero;stroke:none"
                           id="path258" />
                        <path
                           d="m 430.85185,-700.4865 c 27.52394,-3.08641 52.67238,7.68161 71.97513,20.1752 0,-3.54588 0,-7.09127 0,-10.63716 -19.21388,-12.95795 -44.45656,-24.04433 -72.1973,-20.84366 0.0737,3.76854 0.14795,7.53708 0.22217,11.30562 z"
                           style="fill:#707070;fill-opacity:1;fill-rule:nonzero;stroke:none"
                           id="path260" />
                        <path
                           d="m 430.62968,-711.79212 c 27.74074,-3.20067 52.98342,7.88571 72.1973,20.84366 0,-3.54539 0,-7.09079 0,-10.63667 -19.18019,-13.13471 -44.59475,-24.75624 -72.418,-21.51163 0.0732,3.76805 0.14697,7.53659 0.2207,11.30464 z"
                           style="fill:#3c3c3c;fill-opacity:1;fill-rule:nonzero;stroke:none"
                           id="path262" />
                      </g>
                    </g>
                  </g>
                </g>
              </g>
            </g>
          </g>
        </g>
        <g
           id="g278"
           transform="translate(317.5841,522.024)">
          <path
             d="m 0,0 c -32.463,0 -62.983,12.642 -85.939,35.597 -22.955,22.955 -35.596,53.475 -35.596,85.939 0,32.463 12.641,62.983 35.596,85.938 22.956,22.955 53.476,35.597 85.939,35.597 32.463,0 62.984,-12.642 85.939,-35.597 22.955,-22.955 35.597,-53.475 35.597,-85.938 0,-32.464 -12.642,-62.984 -35.597,-85.939 C 62.984,12.642 32.463,0 0,0"
             style="fill:#ffffff;fill-opacity:1;fill-rule:nonzero;stroke:none"
             id="path280" />
        </g>
      </g>
    </g>
  </g>
</svg>
