<svg xmlns="http://www.w3.org/2000/svg" viewBox="0 0 27.66 27.66"><defs><style>.cls-1{fill:#666;stroke:#666;stroke-miterlimit:10;stroke-width:0.75px;}</style></defs><g id="Layer_2" data-name="Layer 2"><g id="Layer_1-2" data-name="Layer 1"><path class="cls-1" d="M15.26,27.28H12.39a1,1,0,0,1-1-1V25.05a1.37,1.37,0,0,0-.94-1.29,10.88,10.88,0,0,1-1.28-.54,1.32,1.32,0,0,0-1.52.24l-.89.9a1,1,0,0,1-1.43,0l-2-2a1,1,0,0,1,0-1.43l.91-.9a1.34,1.34,0,0,0,.24-1.52,12.8,12.8,0,0,1-.53-1.28,1.35,1.35,0,0,0-1.28-.93H1.38a1,1,0,0,1-1-1V12.39a1,1,0,0,1,1-1H2.66a1.35,1.35,0,0,0,1.28-.92,10.8,10.8,0,0,1,.53-1.26,1.33,1.33,0,0,0-.24-1.53L3.3,6.76A1,1,0,0,1,3,6a1,1,0,0,1,.29-.71l2-2a1,1,0,0,1,1.43,0l.93.94a1.31,1.31,0,0,0,1.52.24A12.39,12.39,0,0,1,10.47,4a1.33,1.33,0,0,0,.92-1.26V1.38a1,1,0,0,1,1-1h2.87a1,1,0,0,1,1,1V2.7A1.33,1.33,0,0,0,17.18,4a10.75,10.75,0,0,1,1.26.52A1.3,1.3,0,0,0,20,4.24l.94-.94a1,1,0,0,1,1.43,0l2,2a1,1,0,0,1,.29.71,1,1,0,0,1-.29.72l-.93.92a1.32,1.32,0,0,0-.24,1.53,9.27,9.27,0,0,1,.52,1.26,1.36,1.36,0,0,0,1.28.92h1.28a1,1,0,0,1,1,1v2.87a1,1,0,0,1-1,1H25a1.34,1.34,0,0,0-1.28.93,11.89,11.89,0,0,1-.53,1.28A1.32,1.32,0,0,0,23.45,20l.91.9a1,1,0,0,1,0,1.43l-2,2a1,1,0,0,1-1.43,0l-.89-.9a1.32,1.32,0,0,0-1.52-.24,10.35,10.35,0,0,1-1.29.54,1.38,1.38,0,0,0-.93,1.29v1.22A1,1,0,0,1,15.26,27.28Zm-6.68-5a2.08,2.08,0,0,1,.93.22,9.63,9.63,0,0,0,1.19.5,2.12,2.12,0,0,1,1.44,2v1.22a.25.25,0,0,0,.25.26h2.87a.26.26,0,0,0,.26-.26V25.05a2.12,2.12,0,0,1,1.44-2,9.63,9.63,0,0,0,1.19-.5,2.07,2.07,0,0,1,2.39.38l.89.89a.27.27,0,0,0,.37,0l2-2a.27.27,0,0,0,.08-.19.27.27,0,0,0-.08-.18l-.9-.9a2.07,2.07,0,0,1-.39-2.38A11.12,11.12,0,0,0,23,17a2.11,2.11,0,0,1,2-1.44h1.25a.26.26,0,0,0,.26-.26V12.39a.25.25,0,0,0-.26-.25H25a2.13,2.13,0,0,1-2-1.43,8.52,8.52,0,0,0-.49-1.17,2.08,2.08,0,0,1,.39-2.39l.92-.93A.23.23,0,0,0,23.9,6a.25.25,0,0,0-.08-.18l-2-2a.27.27,0,0,0-.37,0l-.94.94a2.07,2.07,0,0,1-2.38.39,10,10,0,0,0-1.17-.49,2.08,2.08,0,0,1-1.42-2V1.38a.26.26,0,0,0-.26-.25H12.39a.25.25,0,0,0-.25.25V2.7a2.08,2.08,0,0,1-1.42,2,9.3,9.3,0,0,0-1.17.49,2.08,2.08,0,0,1-2.39-.39l-.94-.94a.27.27,0,0,0-.36,0l-2,2A.24.24,0,0,0,3.76,6a.23.23,0,0,0,.07.18l.93.93a2.07,2.07,0,0,1,.38,2.39,10,10,0,0,0-.49,1.17,2.11,2.11,0,0,1-2,1.43H1.38a.25.25,0,0,0-.25.25v2.87a.26.26,0,0,0,.25.26H2.64a2.11,2.11,0,0,1,2,1.44,11,11,0,0,0,.49,1.19,2.07,2.07,0,0,1-.38,2.38l-.91.9a.26.26,0,0,0-.07.18.26.26,0,0,0,.07.19l2,2a.25.25,0,0,0,.36,0l.9-.89A2.07,2.07,0,0,1,8.58,22.33Z"/><path class="cls-1" d="M13.83,21.34a7.51,7.51,0,1,1,7.51-7.51A7.52,7.52,0,0,1,13.83,21.34Zm0-14.27a6.76,6.76,0,1,0,6.76,6.76A6.76,6.76,0,0,0,13.83,7.07Z"/></g></g></svg>