<svg xmlns="http://www.w3.org/2000/svg" viewBox="0 0 27.49 28.4"><defs><style>.cls-1{fill:#666;stroke:#666;stroke-miterlimit:10;stroke-width:0.75px;}</style></defs><g id="Layer_2" data-name="Layer 2"><g id="Layer_1-2" data-name="Layer 1"><path class="cls-1" d="M26.33,23.33a2.63,2.63,0,0,0-1.7-.77v-6a4.09,4.09,0,0,0-4.09-4.09H14.27V5.69a2.67,2.67,0,0,0,2.28-2.64,2.62,2.62,0,0,0-.79-1.89h0A2.61,2.61,0,0,0,13.87.38a2.67,2.67,0,0,0-.39,5.31v6.78H6.1a3.44,3.44,0,0,0-3.44,3.44v6.54a2.67,2.67,0,1,0,3.06,2.64,2.63,2.63,0,0,0-.78-1.89h0a2.63,2.63,0,0,0-1.5-.75V15.91A2.66,2.66,0,0,1,6.1,13.26h7.38v9.43a2.68,2.68,0,1,0,2.94,2.66,2.69,2.69,0,0,0-2.15-2.62V13.26h6.27a3.31,3.31,0,0,1,3.31,3.3v6.05a2.67,2.67,0,1,0,2.48.72ZM12,3.05a1.89,1.89,0,0,1,1.89-1.89,1.89,1.89,0,0,1,1.9,1.89,1.9,1.9,0,0,1-3.79,0ZM4.39,23.75a1.93,1.93,0,0,1,.55,1.34A1.89,1.89,0,1,1,3.05,23.2a1.93,1.93,0,0,1,1.34.55Zm11.25,1.6A1.89,1.89,0,1,1,15.08,24h0A1.89,1.89,0,0,1,15.64,25.35Zm8.8,1.76a1.89,1.89,0,1,1,0-3.78,1.93,1.93,0,0,1,1.34.55h0a1.93,1.93,0,0,1,.55,1.34A1.89,1.89,0,0,1,24.44,27.11Z"/></g></g></svg>