<svg xmlns="http://www.w3.org/2000/svg" viewBox="0 0 24.64 32.05"><defs><style>.cls-1{fill:#666;stroke:#666;stroke-miterlimit:10;stroke-width:0.75px;}</style></defs><g id="Layer_2" data-name="Layer 2"><g id="Layer_1-2" data-name="Layer 1"><path class="cls-1" d="M17,19.77a.61.61,0,0,1,.59.41l.21.53a.33.33,0,0,0,.35.23,4.24,4.24,0,0,1,.62,0,.4.4,0,0,0,.4-.22l.22-.51a.64.64,0,0,1,.84-.31l1.18.53a.63.63,0,0,1,.33.35.61.61,0,0,1,0,.48l-.23.51a.39.39,0,0,0,.09.44,3.64,3.64,0,0,1,.43.45.36.36,0,0,0,.41.12l.53-.2a.64.64,0,0,1,.49,0,.65.65,0,0,1,.33.36l.45,1.2a.63.63,0,0,1-.36.82l-.54.2a.36.36,0,0,0-.23.36c0,.21,0,.42,0,.62a.38.38,0,0,0,.21.39l.52.23a.64.64,0,0,1,.32.84l-.53,1.17a.63.63,0,0,1-.84.32l-.53-.24a.39.39,0,0,0-.43.1,5.92,5.92,0,0,1-.45.41.36.36,0,0,0-.11.41l.21.56a.62.62,0,0,1,0,.48.63.63,0,0,1-.35.33l-1.21.46a.61.61,0,0,1-.48,0,.6.6,0,0,1-.33-.35l-.22-.56a.36.36,0,0,0-.35-.23,4.1,4.1,0,0,1-.61,0,.38.38,0,0,0-.38.21l-.24.55a.64.64,0,0,1-.84.31L15.23,31a.63.63,0,0,1-.33-.35.64.64,0,0,1,0-.49l.25-.54a.39.39,0,0,0-.09-.42,5.77,5.77,0,0,1-.42-.44.37.37,0,0,0-.41-.12l-.56.21a.61.61,0,0,1-.48,0,.63.63,0,0,1-.34-.36l-.45-1.2a.64.64,0,0,1,0-.49.66.66,0,0,1,.35-.33l.56-.21a.38.38,0,0,0,.23-.36,4.14,4.14,0,0,1,0-.61.37.37,0,0,0-.21-.38l-.53-.24a.64.64,0,0,1-.32-.84L13,22.63h0a.65.65,0,0,1,.36-.33.62.62,0,0,1,.48,0l.52.23a.37.37,0,0,0,.43-.09,6.14,6.14,0,0,1,.45-.43.36.36,0,0,0,.12-.41l-.21-.54a.63.63,0,0,1,.37-.81l1.21-.46A.57.57,0,0,1,17,19.77Zm1.14,1.93A1.1,1.1,0,0,1,17.08,21l-.16-.42-1,.37.16.43a1.13,1.13,0,0,1-.35,1.26,4.12,4.12,0,0,0-.37.35,1.14,1.14,0,0,1-1.3.27l-.41-.18-.43,1,.42.19a1.13,1.13,0,0,1,.66,1.14,4.35,4.35,0,0,0,0,.51A1.13,1.13,0,0,1,13.6,27l-.44.16.37,1,.44-.17a1.12,1.12,0,0,1,1.26.34,4.26,4.26,0,0,0,.35.38,1.11,1.11,0,0,1,.27,1.28l-.19.43.95.43.19-.43a1.13,1.13,0,0,1,1.14-.65,4.34,4.34,0,0,0,.51,0,1.12,1.12,0,0,1,1.09.72l.17.45,1-.37-.17-.44a1.12,1.12,0,0,1,.34-1.26,4.26,4.26,0,0,0,.38-.35,1.14,1.14,0,0,1,1.29-.27l.42.19.43-.95L23,27.25a1.15,1.15,0,0,1-.66-1.15,4.52,4.52,0,0,0,0-.52,1.1,1.1,0,0,1,.72-1.09l.42-.17-.37-1-.41.16a1.13,1.13,0,0,1-1.27-.35c-.11-.13-.23-.26-.35-.38a1.14,1.14,0,0,1-.27-1.3l.18-.39-1-.43-.17.39a1.14,1.14,0,0,1-1.16.66,4.47,4.47,0,0,0-.52,0Z"/><path class="cls-1" d="M18.32,22.73a2.91,2.91,0,0,1,1.22.26A3,3,0,0,1,21,27a3,3,0,0,1-1.67,1.57,3,3,0,0,1-3.78-4A3,3,0,0,1,18.32,22.73Zm0,5.22a2.2,2.2,0,0,0,2-1.31,2.16,2.16,0,0,0,0-1.71,2.21,2.21,0,0,0-1.17-1.25,2.24,2.24,0,0,0-2.95,1.12,2.16,2.16,0,0,0-.05,1.71A2.2,2.2,0,0,0,18.31,28Z"/><path class="cls-1" d="M8.82,13.79a6.71,6.71,0,1,1,6.71-6.71A6.72,6.72,0,0,1,8.82,13.79Zm0-12.66a5.95,5.95,0,1,0,5.95,6A6,6,0,0,0,8.82,1.13Z"/><path class="cls-1" d="M10.32,27.7H.75a.37.37,0,0,1-.37-.37V21.64a8.61,8.61,0,0,1,16.3-3.87.38.38,0,0,1-.68.34A7.86,7.86,0,0,0,1.13,21.64V27h9.19a.38.38,0,0,1,0,.75Z"/></g></g></svg>