<svg xmlns="http://www.w3.org/2000/svg" viewBox="0 0 22.45 28.58"><defs><style>.cls-1{fill:#666;stroke:#666;stroke-miterlimit:10;}</style></defs><g id="Layer_2" data-name="Layer 2"><g id="Layer_1-2" data-name="Layer 1"><path class="cls-1" d="M21.57,28.08H.88A.38.38,0,0,1,.5,27.7V11.07a.38.38,0,0,1,.38-.38H21.57a.38.38,0,0,1,.38.38V27.7A.38.38,0,0,1,21.57,28.08Zm-20.3-.77H21.19V11.46H1.27Z"/><path class="cls-1" d="M18.08,11.46a.39.39,0,0,1-.39-.39V7.6a6.45,6.45,0,0,0-6.55-6.33A6.45,6.45,0,0,0,4.59,7.6v3.47a.38.38,0,1,1-.76,0V7.6A7.22,7.22,0,0,1,11.14.5a7.22,7.22,0,0,1,7.32,7.1v3.47A.38.38,0,0,1,18.08,11.46Z"/><path class="cls-1" d="M11.23,22.3a.38.38,0,0,1-.39-.39V16.86a.39.39,0,1,1,.77,0v5.05A.38.38,0,0,1,11.23,22.3Z"/></g></g></svg>